<svg width="56" height="56" viewBox="0 0 56 56" fill="none" xmlns="http://www.w3.org/2000/svg">
    <defs>
        <clipPath id="clip0_401_6430">
            <rect width="56" height="56" fill="white"/>
        </clipPath>
    </defs>
<g clip-path="url(#clip0_401_6430)">
<path d="M9.95312 36.2031H23.2708C24.1035 27.019 31.8371 19.7969 41.2344 19.7969C43.9935 19.7969 46.6002 20.4377 48.9415 21.5494C47.6717 17.1749 43.894 13.8496 39.1516 13.3241C37.7062 7.5755 32.4754 3.39062 26.4688 3.39062C21.8079 3.39062 17.3791 5.93146 15.0463 9.95612C11.0071 9.76898 7.26917 12.9169 6.67316 17.0907C2.74121 18.4301 0 22.1472 0 26.3594C0 31.7875 4.52496 36.2031 9.95312 36.2031Z" fill="#A6CE3A" fill-opacity="0.38"/>
<path d="M41.2344 23.0781C33.0923 23.0781 26.4688 29.7017 26.4688 37.8438C26.4688 45.9858 33.0923 52.6094 41.2344 52.6094C49.3764 52.6094 56 45.9858 56 37.8438C56 29.7017 49.3764 23.0781 41.2344 23.0781ZM47.0342 41.3237L44.7143 43.6436L41.2344 40.1637L37.7545 43.6436L35.4345 41.3237L38.9144 37.8438L35.4345 34.3638L37.7545 32.0439L41.2344 35.5238L44.7143 32.0439L47.0342 34.3638L43.5543 37.8438L47.0342 41.3237Z" fill="#A6CE3A" fill-opacity="0.38"/>
</g>

</svg>
