<svg width="335" height="102" viewBox="0 0 335 102" fill="none" xmlns="http://www.w3.org/2000/svg">
    <defs>
        <linearGradient id="paint0_linear_401_3955" x1="194.517" y1="71.2746" x2="187.378" y2="94.1958" gradientUnits="userSpaceOnUse">
            <stop stop-color="#A6CE3A"/>
            <stop offset="1" stop-color="#BDDA6C"/>
        </linearGradient>
        <linearGradient id="paint1_linear_401_3955" x1="23.3729" y1="53.2746" x2="30.5116" y2="76.1958" gradientUnits="userSpaceOnUse">
            <stop stop-color="#A6CE3A"/>
            <stop offset="1" stop-color="#BDDA6C"/>
        </linearGradient>
        <linearGradient id="paint2_linear_401_3955" x1="311.517" y1="81.201" x2="304.378" y2="58.2797" gradientUnits="userSpaceOnUse">
            <stop stop-color="#A6CE3A"/>
            <stop offset="1" stop-color="#BDDA6C"/>
        </linearGradient>
        <linearGradient id="paint3_linear_401_3955" x1="96.2654" y1="57.0424" x2="112.27" y2="29.3214" gradientUnits="userSpaceOnUse">
            <stop stop-color="#A6CE3A"/>
            <stop offset="1" stop-color="#BDDA6C"/>
        </linearGradient>
        <linearGradient id="paint4_linear_401_3955" x1="250.278" y1="44.0424" x2="234.273" y2="16.3214" gradientUnits="userSpaceOnUse">
            <stop stop-color="#A6CE3A"/>
            <stop offset="1" stop-color="#BDDA6C"/>
        </linearGradient>
        <clipPath id="clip0_401_3955">
            <rect width="48.9681" height="24" fill="white" transform="matrix(0.954767 0.297356 0.297356 -0.954767 164 86.9146)"/>
        </clipPath>
        <clipPath id="clip1_401_3955">
            <rect width="48.9681" height="24" fill="white" transform="translate(53.8896 68.9146) rotate(162.701)"/>
        </clipPath>
        <clipPath id="clip2_401_3955">
            <rect width="48.9681" height="24" fill="white" transform="translate(281 65.561) rotate(-17.2989)"/>
        </clipPath>
        <clipPath id="clip3_401_3955">
            <rect width="65.2908" height="32" fill="white" transform="matrix(-0.866025 -0.5 -0.5 0.866025 140.544 45.6455)"/>
        </clipPath>
        <clipPath id="clip4_401_3955">
            <rect width="65.2908" height="32" fill="white" transform="translate(206 32.6455) rotate(-30)"/>
        </clipPath>
    </defs>
<g opacity="0.12" clip-path="url(#clip0_401_3955)">
<path d="M213.463 92.6989C213.38 92.8145 213.209 92.8322 213.094 92.749C212.514 92.262 211.789 91.9417 211.045 91.7571C210.3 91.5725 209.509 91.5383 208.734 91.6035C207.17 91.7058 205.626 92.1209 204.111 92.5924C202.597 93.064 201.075 93.557 199.525 93.9937C197.995 94.437 196.415 94.8173 194.817 95.027C194.007 95.1285 193.189 95.1803 192.37 95.161C191.949 95.1479 191.557 95.1201 191.143 95.0856C190.937 95.0683 190.758 95.0363 190.551 95.019C190.351 94.9802 190.144 94.963 189.944 94.9242C188.343 94.6142 186.742 93.9979 185.357 93.0712C184.657 92.5937 184.026 92.0437 183.444 91.4143C182.89 90.7702 182.399 90.0749 182.021 89.3205C181.643 88.566 181.356 87.7457 181.197 86.8943C181.117 86.4687 181.059 86.0497 181.051 85.6226C181.021 85.1888 181.103 84.6958 181.397 84.4336C181.607 84.2158 181.972 84.3297 182.159 84.4114C194.354 88.5632 200.513 81.7331 209.925 88.0835C209.651 87.9038 209.366 87.532 208.938 87.1631C208.468 86.7808 207.882 86.3153 207.147 85.8741C206.412 85.433 205.556 85.0013 204.594 84.6074C203.632 84.2134 202.542 83.8505 201.383 83.5602C200.223 83.2699 198.979 83.0239 197.672 82.8291C195.08 82.4461 192.292 82.2379 189.482 82.0231C186.665 81.8297 183.848 81.6363 181.191 81.2333C179.863 81.0317 178.576 80.7724 177.359 80.4405C176.142 80.1086 175.016 79.7108 173.995 79.2041C172.988 78.7256 172.08 78.1597 171.342 77.5761C170.604 76.9926 170.036 76.3915 169.585 75.8735C169.365 75.593 169.176 75.3689 169.036 75.1367C168.955 75.0172 168.889 74.9259 168.83 74.8132C168.801 74.7568 168.764 74.7219 168.735 74.6655C168.698 74.6306 168.69 74.581 168.675 74.5528C168.506 74.2642 168.41 74.1165 168.41 74.1165C168.396 74.0883 168.396 74.0883 168.381 74.0601C168.063 73.4896 168.291 72.7588 168.876 72.4695C169.447 72.1519 170.178 72.3796 170.467 72.9649C170.467 72.9649 170.556 73.134 170.704 73.4159C170.719 73.4441 170.748 73.5005 170.763 73.5287C170.778 73.5569 170.814 73.5917 170.822 73.6414C170.873 73.7045 170.918 73.7891 170.962 73.8737C171.051 74.0428 171.219 74.2602 171.366 74.4709C171.702 74.9058 172.132 75.4171 172.726 75.9322C173.299 76.4407 174.029 76.9746 174.899 77.4344C175.763 77.9157 176.762 78.3445 177.88 78.6927C178.991 79.0623 180.193 79.366 181.458 79.6186C181.594 79.6373 181.723 79.6775 181.837 79.6895L181.857 79.625C181.974 79.4019 182.097 79.1573 182.214 78.9343C182.447 78.4882 182.723 78.0554 183.021 77.6294C183.588 76.7921 184.278 76.0165 185.034 75.3321C185.789 74.6478 186.632 74.0614 187.556 73.5944C188.458 73.1208 189.419 72.7599 190.39 72.5199C192.338 72.0184 194.394 71.9278 196.371 72.1663C198.349 72.4048 200.275 72.9577 202.1 73.7617C203.903 74.5591 205.633 75.593 207.146 76.8661C208.666 78.1177 210.02 79.6005 211.107 81.2595C212.194 82.9185 212.985 84.7685 213.394 86.7116C213.81 88.6331 213.864 90.6544 213.568 92.5901C213.505 92.6411 213.498 92.6626 213.463 92.6989Z" fill="url(#paint0_linear_401_3955)"/>
</g>
<g opacity="0.12" clip-path="url(#clip1_401_3955)">
<path d="M4.42655 74.6989C4.50971 74.8145 4.68026 74.8322 4.79585 74.749C5.37518 74.262 6.10075 73.9417 6.845 73.7571C7.58924 73.5725 8.38034 73.5383 9.15524 73.6035C10.7198 73.7058 12.264 74.1209 13.7785 74.5924C15.293 75.064 16.8143 75.557 18.3651 75.9937C19.8944 76.437 21.4749 76.8173 23.0729 77.027C23.8827 77.1285 24.7006 77.1803 25.5199 77.161C25.9403 77.1479 26.3325 77.1201 26.7462 77.0856C26.953 77.0683 27.1317 77.0363 27.3386 77.019C27.5387 76.9802 27.7456 76.963 27.9457 76.9242C29.547 76.6142 31.1472 75.9979 32.5328 75.0712C33.233 74.5937 33.8634 74.0437 34.4456 73.4143C34.9995 72.7702 35.4904 72.0749 35.8686 71.3205C36.2467 70.566 36.5336 69.7457 36.6929 68.8943C36.7725 68.4687 36.8307 68.0497 36.8391 67.6226C36.8691 67.1888 36.7863 66.6958 36.4924 66.4336C36.2831 66.2158 35.9177 66.3297 35.7309 66.4114C23.5358 70.5632 17.3763 63.7331 7.96463 70.0835C8.23879 69.9038 8.52388 69.532 8.95133 69.1631C9.42178 68.7808 10.0078 68.3153 10.7429 67.8741C11.478 67.433 12.3339 67.0013 13.296 66.6074C14.258 66.2134 15.3476 65.8505 16.5069 65.5602C17.6663 65.2699 18.9102 65.0239 20.2172 64.8291C22.8097 64.4461 25.5981 64.2379 28.4081 64.0231C31.2247 63.8297 34.0413 63.6363 36.6983 63.2333C38.0268 63.0317 39.3137 62.7724 40.5309 62.4405C41.748 62.1086 42.8739 61.7108 43.8951 61.2041C44.9016 60.7256 45.81 60.1597 46.5479 59.5761C47.2858 58.9926 47.8532 58.3915 48.305 57.8735C48.5242 57.593 48.7138 57.3689 48.8537 57.1367C48.9344 57.0172 49.0003 56.9259 49.0595 56.8132C49.0891 56.7568 49.1254 56.7219 49.155 56.6655C49.1913 56.6306 49.1994 56.581 49.2142 56.5528C49.3837 56.2642 49.4792 56.1165 49.4792 56.1165C49.494 56.0883 49.494 56.0883 49.5088 56.0601C49.8263 55.4896 49.5987 54.7588 49.0134 54.4695C48.4429 54.1519 47.712 54.3796 47.4227 54.9649C47.4227 54.9649 47.3339 55.134 47.1859 55.4159C47.1711 55.4441 47.1415 55.5005 47.1267 55.5287C47.1119 55.5569 47.0756 55.5917 47.0675 55.6414C47.0164 55.7045 46.972 55.7891 46.9276 55.8737C46.8387 56.0428 46.6707 56.2602 46.5241 56.4709C46.1879 56.9058 45.7576 57.4171 45.1635 57.9322C44.5908 58.4407 43.861 58.9746 42.9903 59.4344C42.1262 59.9157 41.1279 60.3445 40.0101 60.6927C38.899 61.0623 37.6967 61.366 36.4312 61.6186C36.2956 61.6373 36.1666 61.6775 36.0524 61.6895L36.0323 61.625C35.9157 61.4019 35.7924 61.1573 35.6758 60.9343C35.4425 60.4882 35.1662 60.0554 34.8685 59.6294C34.3012 58.7921 33.6116 58.0165 32.8561 57.3321C32.1006 56.6478 31.2577 56.0614 30.3341 55.5944C29.432 55.1208 28.4707 54.7599 27.4999 54.5199C25.5516 54.0184 23.4954 53.9278 21.5182 54.1663C19.5409 54.4048 17.6144 54.9577 15.7898 55.7617C13.9866 56.5591 12.257 57.593 10.7435 58.8661C9.22328 60.1177 7.86938 61.6005 6.78257 63.2595C5.69577 64.9185 4.90426 66.7685 4.49544 68.7116C4.07992 70.6331 4.02559 72.6544 4.32189 74.5901C4.38497 74.6411 4.39166 74.6626 4.42655 74.6989Z" fill="url(#paint1_linear_401_3955)"/>
</g>
<g opacity="0.12" clip-path="url(#clip2_401_3955)">
<path d="M330.463 59.7766C330.38 59.6611 330.209 59.6434 330.094 59.7266C329.514 60.2136 328.789 60.5339 328.045 60.7185C327.3 60.9031 326.509 60.9373 325.734 60.8721C324.17 60.7698 322.626 60.3547 321.111 59.8831C319.597 59.4116 318.075 58.9186 316.525 58.4819C314.995 58.0386 313.415 57.6583 311.817 57.4486C311.007 57.3471 310.189 57.2953 309.37 57.3146C308.949 57.3276 308.557 57.3555 308.143 57.39C307.937 57.4073 307.758 57.4393 307.551 57.4566C307.351 57.4953 307.144 57.5126 306.944 57.5514C305.343 57.8614 303.742 58.4777 302.357 59.4044C301.657 59.8819 301.026 60.4319 300.444 61.0613C299.89 61.7054 299.399 62.4007 299.021 63.1551C298.643 63.9096 298.356 64.7299 298.197 65.5813C298.117 66.0069 298.059 66.4259 298.051 66.853C298.021 67.2868 298.103 67.7798 298.397 68.042C298.607 68.2597 298.972 68.1459 299.159 68.0642C311.354 63.9124 317.513 70.7425 326.925 64.3921C326.651 64.5718 326.366 64.9435 325.938 65.3125C325.468 65.6948 324.882 66.1603 324.147 66.6015C323.412 67.0426 322.556 67.4743 321.594 67.8682C320.632 68.2621 319.542 68.6251 318.383 68.9154C317.223 69.2057 315.979 69.4517 314.672 69.6465C312.08 70.0295 309.292 70.2376 306.482 70.4525C303.665 70.6459 300.848 70.8393 298.191 71.2423C296.863 71.4438 295.576 71.7032 294.359 72.0351C293.142 72.367 292.016 72.7648 290.995 73.2715C289.988 73.75 289.08 74.3159 288.342 74.8994C287.604 75.483 287.036 76.0841 286.585 76.6021C286.365 76.8826 286.176 77.1067 286.036 77.3389C285.955 77.4584 285.889 77.5497 285.83 77.6624C285.801 77.7188 285.764 77.7537 285.735 77.8101C285.698 77.8449 285.69 77.8946 285.675 77.9228C285.506 78.2114 285.41 78.3591 285.41 78.3591C285.396 78.3873 285.396 78.3873 285.381 78.4154C285.063 78.986 285.291 79.7168 285.876 80.0061C286.447 80.3236 287.178 80.096 287.467 79.5107C287.467 79.5107 287.556 79.3416 287.704 79.0597C287.719 79.0315 287.748 78.9751 287.763 78.9469C287.778 78.9187 287.814 78.8838 287.822 78.8342C287.873 78.7711 287.918 78.6865 287.962 78.6019C288.051 78.4328 288.219 78.2154 288.366 78.0047C288.702 77.5698 289.132 77.0585 289.726 76.5434C290.299 76.0349 291.029 75.501 291.899 75.0412C292.763 74.5599 293.762 74.131 294.88 73.7829C295.991 73.4133 297.193 73.1096 298.458 72.857C298.594 72.8383 298.723 72.7981 298.837 72.7861L298.857 72.8506C298.974 73.0737 299.097 73.3182 299.214 73.5413C299.447 73.9874 299.723 74.4202 300.021 74.8462C300.588 75.6835 301.278 76.4591 302.034 77.1435C302.789 77.8278 303.632 78.4142 304.556 78.8812C305.458 79.3548 306.419 79.7157 307.39 79.9557C309.338 80.4572 311.394 80.5478 313.371 80.3093C315.349 80.0708 317.275 79.5179 319.1 78.7138C320.903 77.9164 322.633 76.8826 324.146 75.6095C325.666 74.3578 327.02 72.875 328.107 71.216C329.194 69.5571 329.985 67.7071 330.394 65.764C330.81 63.8425 330.864 61.8212 330.568 59.8855C330.505 59.8344 330.498 59.8129 330.463 59.7766Z" fill="url(#paint2_linear_401_3955)"/>
</g>
<g opacity="0.12" clip-path="url(#clip3_401_3955)">
<path d="M77.9023 23.6215C78.0443 23.4955 78.2713 23.5226 78.3973 23.6646C79.0081 24.4679 79.858 25.0972 80.7719 25.5555C81.6858 26.0138 82.7048 26.2902 83.7318 26.4325C85.7968 26.7582 87.927 26.6709 90.0352 26.5016C92.1434 26.3322 94.2666 26.1369 96.4118 26.0236C98.531 25.8952 100.698 25.8639 102.838 26.0596C103.921 26.165 105 26.3373 106.06 26.6027C106.603 26.7429 107.105 26.8941 107.633 27.0602C107.897 27.1433 108.12 27.2374 108.384 27.3205C108.633 27.4296 108.897 27.5127 109.146 27.6218C111.138 28.4945 113.039 29.7652 114.569 31.3768C115.34 32.2031 115.999 33.1033 116.572 34.0926C117.103 35.0928 117.538 36.141 117.809 37.2332C118.079 38.3254 118.212 39.4765 118.17 40.6306C118.148 41.2076 118.101 41.7696 117.987 42.3276C117.899 42.9006 117.647 43.5176 117.188 43.7725C116.851 43.9944 116.41 43.7392 116.191 43.5781C101.545 34.6028 91.5315 41.6811 81.1513 30.662C81.4552 30.9761 81.717 31.5432 82.1649 32.1484C82.6647 32.7836 83.2905 33.5609 84.1173 34.3502C84.9441 35.1395 85.9309 35.9519 87.0667 36.7463C88.2026 37.5407 89.5134 38.3322 90.9363 39.0497C92.3591 39.7672 93.905 40.4518 95.5479 41.0883C98.8078 42.3465 102.374 43.4347 105.966 44.5379C109.572 45.6152 113.179 46.6924 116.517 47.9955C118.186 48.6471 119.784 49.3617 121.27 50.1502C122.756 50.9387 124.104 51.7862 125.283 52.7447C126.452 53.6621 127.468 54.6645 128.257 55.6398C129.045 56.6152 129.607 57.5634 130.043 58.3696C130.246 58.7987 130.427 59.1458 130.54 59.4888C130.61 59.6679 130.669 59.8059 130.713 59.9699C130.735 60.0519 130.772 60.108 130.794 60.19C130.831 60.246 130.827 60.313 130.838 60.354C130.974 60.7791 131.055 60.9991 131.055 60.9991C131.066 61.0401 131.066 61.0401 131.077 61.0811C131.323 61.9163 130.812 62.8002 129.966 63.0049C129.131 63.2507 128.247 62.7403 128.043 61.8942C128.043 61.8942 127.977 61.6482 127.867 61.2381C127.856 61.1971 127.834 61.1151 127.823 61.0741C127.812 61.0331 127.775 60.9771 127.779 60.9101C127.731 60.813 127.698 60.69 127.665 60.567C127.599 60.321 127.444 59.9889 127.315 59.6718C127.005 59.0077 126.596 58.2165 125.974 57.3722C125.378 56.543 124.585 55.6347 123.588 54.7813C122.605 53.9019 121.432 53.0515 120.08 52.271C118.743 51.4645 117.268 50.717 115.696 50.0174C115.525 49.9534 115.37 49.8633 115.225 49.8143L115.179 49.8922C114.962 50.1482 114.73 50.4301 114.513 50.6861C114.079 51.198 113.593 51.6799 113.081 52.1467C112.097 53.0695 110.973 53.8762 109.79 54.5448C108.606 55.2135 107.338 55.7291 106 56.0657C104.688 56.4173 103.332 56.6049 101.998 56.6325C99.3172 56.7136 96.6162 56.2287 94.1143 55.3389C91.6124 54.449 89.2686 53.1652 87.131 51.5844C85.0193 50.0186 83.0728 48.1668 81.4774 46.0672C79.8669 43.9935 78.5406 41.6679 77.6133 39.1915C76.686 36.715 76.1988 34.0766 76.2367 31.4295C76.2595 28.8083 76.7814 26.1633 77.7342 23.7324C77.8313 23.6844 77.8463 23.6584 77.9023 23.6215Z" fill="url(#paint3_linear_401_3955)"/>
</g>
<g opacity="0.12" clip-path="url(#clip4_401_3955)">
<path d="M268.641 10.6215C268.499 10.4955 268.272 10.5226 268.146 10.6646C267.535 11.4679 266.686 12.0972 265.772 12.5555C264.858 13.0138 263.839 13.2902 262.812 13.4325C260.747 13.7582 258.617 13.6709 256.508 13.5016C254.4 13.3322 252.277 13.1369 250.132 13.0236C248.013 12.8952 245.845 12.8639 243.705 13.0596C242.622 13.165 241.543 13.3373 240.483 13.6027C239.94 13.7429 239.438 13.8941 238.91 14.0602C238.646 14.1433 238.423 14.2374 238.159 14.3205C237.91 14.4296 237.646 14.5127 237.397 14.6218C235.406 15.4945 233.505 16.7652 231.974 18.3768C231.203 19.2031 230.545 20.1033 229.972 21.0926C229.44 22.0928 229.006 23.141 228.735 24.2332C228.464 25.3254 228.332 26.4765 228.374 27.6306C228.395 28.2076 228.442 28.7696 228.556 29.3276C228.645 29.9006 228.897 30.5176 229.356 30.7725C229.692 30.9944 230.134 30.7392 230.353 30.5781C244.998 21.6028 255.012 28.6811 265.392 17.662C265.088 17.9761 264.827 18.5432 264.379 19.1484C263.879 19.7836 263.253 20.5609 262.426 21.3502C261.599 22.1395 260.613 22.9519 259.477 23.7463C258.341 24.5407 257.03 25.3322 255.607 26.0497C254.184 26.7672 252.639 27.4518 250.996 28.0883C247.736 29.3465 244.17 30.4347 240.578 31.5379C236.971 32.6152 233.364 33.6924 230.026 34.9955C228.357 35.6471 226.76 36.3617 225.274 37.1502C223.788 37.9387 222.44 38.7862 221.26 39.7447C220.092 40.6621 219.076 41.6645 218.287 42.6398C217.498 43.6152 216.937 44.5634 216.501 45.3696C216.298 45.7987 216.117 46.1458 216.003 46.4888C215.933 46.6679 215.874 46.8059 215.83 46.9699C215.808 47.0519 215.771 47.108 215.749 47.19C215.712 47.246 215.716 47.313 215.705 47.354C215.569 47.7791 215.489 47.9991 215.489 47.9991C215.478 48.0401 215.478 48.0401 215.467 48.0811C215.221 48.9163 215.731 49.8002 216.577 50.0049C217.412 50.2507 218.296 49.7403 218.501 48.8942C218.501 48.8942 218.567 48.6482 218.677 48.2381C218.688 48.1971 218.71 48.1151 218.721 48.0741C218.732 48.0331 218.769 47.9771 218.765 47.9101C218.813 47.813 218.846 47.69 218.879 47.567C218.945 47.321 219.099 46.9889 219.228 46.6718C219.538 46.0077 219.948 45.2165 220.57 44.3722C221.166 43.543 221.958 42.6347 222.956 41.7813C223.939 40.9019 225.112 40.0515 226.464 39.271C227.8 38.4645 229.275 37.717 230.847 37.0174C231.018 36.9534 231.174 36.8633 231.319 36.8143L231.364 36.8922C231.581 37.1482 231.813 37.4301 232.03 37.6861C232.465 38.198 232.951 38.6799 233.463 39.1467C234.446 40.0695 235.571 40.8762 236.754 41.5448C237.937 42.2135 239.206 42.7291 240.544 43.0657C241.856 43.4173 243.212 43.6049 244.545 43.6325C247.226 43.7136 249.927 43.2287 252.429 42.3389C254.931 41.449 257.275 40.1652 259.413 38.5844C261.524 37.0186 263.471 35.1668 265.066 33.0672C266.677 30.9935 268.003 28.6679 268.93 26.1915C269.858 23.715 270.345 21.0766 270.307 18.4295C270.284 15.8083 269.762 13.1633 268.809 10.7324C268.712 10.6844 268.697 10.6584 268.641 10.6215Z" fill="url(#paint4_linear_401_3955)"/>
</g>

</svg>
